<?xml version="1.0" standalone="no"?>
<!DOCTYPE svg PUBLIC "-//W3C//DTD SVG 20010904//EN"
 "http://www.w3.org/TR/2001/REC-SVG-20010904/DTD/svg10.dtd">
<svg version="1.0" xmlns="http://www.w3.org/2000/svg"
 width="512.000000pt" height="512.000000pt" viewBox="0 0 512.000000 512.000000"
 preserveAspectRatio="xMidYMid meet">
<metadata>
Created by potrace 1.11, written by Peter Selinger 2001-2013
</metadata>
<g transform="translate(0.000000,512.000000) scale(0.100000,-0.100000)"
fill="#000000" stroke="none">
<path d="M3218 4635 c-1 -1 -46 -6 -98 -10 -52 -4 -104 -8 -115 -10 -11 -1
-25 -3 -32 -4 -8 -1 -11 -13 -8 -33 2 -18 7 -73 10 -123 3 -49 8 -112 10 -140
4 -46 9 -108 20 -254 9 -114 16 -198 20 -241 3 -25 7 -81 10 -125 5 -83 13
-181 20 -250 2 -22 7 -80 10 -130 3 -49 8 -110 10 -135 2 -25 7 -79 10 -120 3
-41 8 -97 10 -125 3 -27 7 -88 10 -135 3 -47 7 -103 10 -125 4 -37 7 -71 20
-257 3 -40 8 -95 10 -123 3 -27 7 -79 10 -115 5 -80 14 -187 20 -260 2 -30 7
-84 10 -120 10 -136 14 -187 19 -250 11 -124 16 -195 22 -275 3 -44 7 -96 9
-115 2 -19 7 -79 11 -132 l6 -98 -143 0 -144 0 0 1638 0 1637 -293 3 -292 2 0
-1640 0 -1640 -45 0 -45 0 0 1843 0 1842 -404 0 -403 0 -1 -1810 c0 -995 -1
-1825 -1 -1842 l-1 -33 -101 0 -100 0 6 108 c4 59 8 123 10 142 2 19 6 82 10
140 3 58 8 121 10 140 2 19 7 81 10 138 10 151 13 198 19 282 3 41 8 104 10
140 3 36 7 97 10 135 3 39 8 102 11 140 9 136 16 241 20 290 2 28 7 95 10 150
3 55 9 108 12 119 3 13 1 16 -7 11 -9 -6 -9 -3 -2 11 5 11 13 55 16 99 13 147
15 180 20 245 11 153 18 257 20 285 l1 30 -288 0 c-159 0 -290 -2 -292 -5 -2
-3 -6 -46 -9 -95 -4 -50 -8 -110 -11 -135 -2 -25 -7 -85 -10 -135 -4 -49 -8
-106 -10 -125 -2 -19 -6 -73 -10 -120 -4 -47 -8 -105 -10 -130 -2 -25 -7 -88
-10 -140 -4 -52 -8 -115 -10 -140 -2 -25 -6 -90 -10 -145 -3 -55 -8 -120 -10
-145 -2 -25 -7 -83 -10 -130 -3 -47 -8 -110 -10 -140 -2 -30 -7 -93 -10 -140
-3 -47 -7 -114 -10 -150 -3 -36 -7 -92 -10 -125 -2 -33 -7 -103 -10 -155 -4
-52 -8 -115 -10 -140 -2 -25 -7 -94 -11 -155 -3 -60 -8 -116 -9 -125 -2 -8 -4
-18 -4 -22 -1 -5 -156 -8 -346 -8 l-345 0 0 -223 0 -223 2560 0 2560 0 0 223
0 223 -359 0 -360 0 -1 283 c0 155 -1 289 -1 297 0 8 1 553 1 1210 1 657 1
1201 0 1208 0 9 -88 12 -404 12 l-404 0 0 -1467 c-1 -808 -1 -1485 -1 -1506
-1 -36 -3 -38 -28 -35 -20 2 -28 9 -29 23 -5 83 -16 215 -19 240 -2 17 -7 68
-10 115 -6 94 -11 167 -20 280 -4 41 -8 100 -10 130 -3 30 -7 84 -10 120 -3
36 -7 90 -10 120 -2 30 -7 87 -10 125 -3 39 -8 97 -10 130 -3 33 -7 87 -10
120 -2 33 -7 94 -10 135 -3 41 -7 100 -10 130 -3 30 -7 84 -10 120 -3 36 -7
88 -10 115 -3 28 -7 88 -10 135 -3 47 -8 110 -10 140 -3 30 -7 82 -9 115 -3
33 -7 87 -10 120 -3 33 -8 94 -11 135 -3 41 -8 98 -10 125 -2 28 -7 88 -10
135 -4 47 -8 105 -10 130 -3 25 -7 86 -11 135 -8 102 -11 140 -13 140 -1 0 -3
29 -5 65 -4 78 -17 255 -21 290 -2 14 -4 48 -4 76 -1 35 -6 54 -15 57 -8 3
-16 4 -18 2z"/>
</g>
</svg>
